<svg enable-background="new 0 0 1315 755" viewBox="0 0 1315 755" xmlns="http://www.w3.org/2000/svg"><g fill="#fff"><path d="m671.2 315.1h117v1.6h-117z" opacity=".2"/><path d="m423.9 315.1h117v1.6h-117z" opacity=".2"/><path d="m633.2 207.9h199.4v1.6h-199.4z" opacity=".2"/><path d="m386 207.9h194.5v1.6h-194.5z" opacity=".2"/><path d="m386 99.1h492.8v1.6h-492.8z" opacity=".2"/><path d="m732.1 37.5h1.6v445.1h-1.6z" opacity=".2"/><path d="m483.9 37.5h1.6v445.1h-1.6z" opacity=".2"/><path d="m301.5 482.5c-1.4-2.6-2.6-6.1-3.6-10.4v-206.1c0-20.1-2.9-38.9-8.6-56.4-5.8-17.5-14.4-32.7-25.9-45.6s-25.8-23.1-42.8-30.5-36.8-11.1-59.3-11.1c-23 0-45.4 4.8-67.3 14.4-21.8 9.6-42.6 21.1-62.2 34.5l8.6 11.5c21.1-14.8 42-26.2 62.6-34.1s40-11.8 58.3-11.8c18.7 0 35.5 3.1 50.4 9.3s27.7 15.1 38.5 26.6 19.1 25.1 24.8 40.9 8.6 33.3 8.6 52.4v42.4c-9.6-3.8-25.2-8.3-46.8-13.3s-47.7-7.5-78.4-7.5c-16.3 0-33.5 1.8-51.4 5.4-18 3.6-34.5 9.5-49.6 17.6s-27.7 19-37.8 32.7c-10.1 13.4-15.2 30.3-15.2 50.4 0 15.8 3.1 30.6 9.4 44.5 6.2 13.9 14.7 26 25.5 36.3s23.6 18.4 38.5 24.4 30.7 9 47.5 9c29.2 0 58.1-5.6 86.7-16.9 28.5-11.2 52.4-29.1 71.6-53.5v34.5c0 7.7 2.3 14.2 6.8 19.7 4.6 5.5 10.9 8.5 19.1 9v-14.4c-3.9 0-6.5-1.3-8-3.9zm-18-84.4c0 9.1-3.6 18.9-10.8 29.4-7.2 11.5-16.4 21.4-27.7 29.8s-23.5 15.2-36.7 20.5-27 9.2-41.4 11.8-28.3 3.9-41.7 3.9c-13.9 0-27.2-2.4-39.9-7.2s-24-11.5-33.8-20.1-17.7-19-23.7-31.2-9-26-9-41.3c0-17.2 4.4-31.7 13.3-43.4s20.1-21.2 33.8-28.4 28.7-12.3 45-15.4 32.1-4.7 47.5-4.7c21.1 0 42.1 1.7 62.9 5 20.9 3.4 41.6 9.1 62.2 17.2z"/><path d="m709.1 478.7-100.9-234.7-1.8.1-94 231.6c2.9 4.6 4.6 10 4.6 15.9 0 7.5-2.8 14.3-7.4 19.5h203.2c-4.2-5.2-6.8-11.8-6.8-19 0-4.9 1.1-9.4 3.1-13.4zm-248-.3-89.5-195.1c-1.5-.4-2.9-.9-4.3-1.5v199.1s1.2 12.3 6.1 18.9c6.1 8.2 17.6 11.2 17.6 11.2h74.4c-4.6-5.2-7.4-12-7.4-19.5 0-4.7 1.1-9.1 3.1-13.1zm302.6 2c1.5 3.6 2.3 7.5 2.3 11.6 0 7.2-2.5 13.8-6.8 19h116.8s17.5-1 24-8.3c6.9-7.9 7.6-22.4 7.6-22.4v-348z" opacity=".12"/><path d="m943.7 31.9c-.7-15-1.2-25.9-1.2-25.9s-31.4 21.2-53.8 33c-31.5 16.6-57.7 25.3-62.7 24.8 27.4 3.2 107.5-35.8 107.5-35.8s-1.1 7.1.4 17.3c3.6 25 21.1 71.7 21.1 71.7s-9.9-53.2-11.3-85.1z"/><path d="m1310.2 309.2c-1.4-100.5-72.8-189.6-181.4-189.6-103.6 0-169.2 91.9-172.1 190.3 0 94.1 75 189.6 178.5 189.6 55.7 0 124.3-30.4 147.1-87.7l-13.6-3.5c-22.1 48.1-79.3 77.1-133.5 77.1-90.7 0-157.8-79.2-164.3-168.3h339.2v-7.9zm-339.2-6.4c4.3-80.6 60-169.1 157.8-169.1 95 0 159.9 73.5 166.4 169.1z"/><path d="m930.4 35.1c-.1-.7-.2-1.3-.3-1.9-.7-2.8-5.1 3.8-5.1 3.8l-190.3 440.8s-.1 3.2-.7 3.2c-.8 0-2.3-3.2-2.3-3.2l-121.9-287h-5.9l-118.9 290-101.2-223.4s-5-3.9-8.8-1.4-3.1 8.8-3.1 8.8l107 230.8s2.2 4.2 6.1 4.4c6.2.4 9-4.4 9-4.4l112.9-273.7 118.8 273.7s5.9 10.3 16.3 5.4c6.8-3.2 7.1-6.1 7.1-6.1l182.5-447.8s-.6-7.4-1.2-12z"/><circle cx="377.1" cy="260.7" r="16.5"/><circle cx="607.9" cy="206.3" r="21.4"/><circle cx="487.5" cy="491.5" r="21.4"/><ellipse cx="736.4" cy="491.5" rx="21.4" ry="21.4"/><path d="m318.3 608.6c1.3 5.4.2 11.2-3.3 17.6-2.9 4.8-7.8 10.4-14.6 17-6.4 5.8-17.9 14.7-34.6 26.6-2.6 1.7-14.7 9.7-36.1 23.9-11.5 7.4-23.7 15-36.6 22.9-10.3 6.2-16.2 10.2-17.8 12 1.6-2.5 7-7.1 16.3-13.9.9-.6 12.7-8.9 35.5-24.8 20.9-14.2 32.8-22.3 35.7-24.4 14.5-9.9 25.8-18.6 34-26.3 5.9-5.4 10.4-10.6 13.3-15.7 2.8-5.1 3.7-9.6 2.8-13.5-1.2-4.1-4-7.8-8.5-11.3-6.4-4.9-15.9-9-28.5-12.2-23.4-6.1-48.1-8.5-74.2-7.2-9.4.3-16.8 1.3-22.2 3-1.7.6-2.8 1.1-3 1.6-.3.5-.3 1.5 0 2.9-1.6 0-2.8-.9-3.5-2.6-.4-2 .3-3.6 2.2-4.8 1.9-1.4 5.2-2.5 9.8-3.3 3.2-.7 8.6-1.4 16.3-2 27.3-1.6 52.6.7 76 6.7 13.2 3.3 23.4 7.7 30.7 13.1 5.5 4.4 9 9.3 10.3 14.7zm-67.5 53.1c.1 1-.1 1.8-.9 2.3-.7.5-1.5.7-2.3.4-.8-.2-1.3-.8-1.4-1.8l-.2-1.5c-.1-.9-.4-2.6-.7-5.2s-.6-5.8-1-9.6-.8-9.1-1.4-16-1.2-14.5-2-23c0-1 .4-1.7 1.1-2.2.7-.4 1.5-.5 2.4-.1s1.3 1.1 1.3 2.1z"/><path d="m364.2 666c5.2.1 12-.2 20.2-1.1-8.9 2.5-15.6 3.8-20.2 3.9-7 .6-11.7-.8-14.1-4.1-1.5-1.9-2.2-4-2.2-6.3-2.5 2-5.2 3.9-8.3 5.7-3.3 2-6.9 3.6-10.7 4.6-4.1.9-6.9.3-8.5-1.7-1.9-1.7-2.3-4.8-1.1-9.1 2-4.2 6.1-8.6 12.2-13.1 5.9-4.9 11-7.3 15.2-7.2 3.2.7 4.6 2.6 4.4 5.7-.4 2-1.1 3.2-2 3.5-.6.6-1.2.8-1.7.5-.6-.2-.9-.6-1.1-1.1-.1-.5-.1-1.1.2-1.6 0-.1 0-.4.1-.9.1-.4.1-.7.1-.9 0-.3-.2-.4-.7-.4-.4 0-1 .1-1.6.2-.7.1-1.1.2-1.2.2-2.2.9-5.2 2.8-8.9 5.7-5.8 4.6-9.4 8.3-10.7 11.1-.6 2-.6 3.6 0 4.6.3.4 1.7.7 4.1.7 3.3-1 6.7-2.3 10.2-3.9 4.9-2.9 8.5-5.7 10.7-8.3.4-1.2 1.3-2.8 2.6-4.8 1.2-1.6 2.5-3 3.9-4.4 1.6-1.2 2.8-1 3.7.4 1 .7 1.1 1.7.2 2.8-1.3 2.6-3 4.8-5.2 6.5-1.9 3.8-2.1 6.7-.7 8.9 1.9 2.6 5.5 3.9 11.1 3.9z"/><path d="m393.8 638.8c6.4-.4 15.1-1.7 26.1-3.9-7.7 4.4-16.4 7.2-26.1 8.5.1 5.2.3 9.6.5 13.1s.4 5.8.5 7.1c.1 1.2.2 2.1.2 2.7-.3 2.2-.9 3.4-2 3.7-1.6.3-2.5-.3-2.8-1.7-.6-.7-.5-1.4.2-2.2-.6-10-1-17.4-1.3-22.2-3.5.3-6.3.1-8.5-.4-3.5-.9-5.7-2-6.7-3.3-.9-.6-1.7-1.9-2.4-3.9 0-1.7.8-2.6 2.4-2.6.6 0 1 .1 1.3.3s.5.6.8 1.1c.2.5.4.8.5 1 .6 1 2.2 1.9 4.8 2.6 1.7.4 4.3.7 7.6.7 0-21.2.2-33.2.7-35.9 0-1 .4-1.7 1.2-2.1s1.6-.3 2.3.1 1.1 1.1 1.1 2c0 .3 0 .9-.1 1.7-.1.9-.2 2.1-.3 3.6s-.3 3.5-.3 5.9c-.1 2.4-.1 5.7 0 10 .1 4.2.2 8.9.3 14.1z"/><path d="m461.5 666c5.2.1 12-.2 20.2-1.1-8.9 2.5-15.6 3.8-20.2 3.9-7 .6-11.7-.8-14.1-4.1-1.5-1.9-2.2-4-2.2-6.3-2.5 2-5.2 3.9-8.3 5.7-3.3 2-6.9 3.6-10.7 4.6-4.1.9-6.9.3-8.5-1.7-1.9-1.7-2.3-4.8-1.1-9.1 2-4.2 6.1-8.6 12.2-13.1 5.9-4.9 11-7.3 15.2-7.2 3.2.7 4.6 2.6 4.4 5.7-.4 2-1.1 3.2-2 3.5-.6.6-1.2.8-1.7.5-.6-.2-.9-.6-1.1-1.1-.1-.5-.1-1.1.2-1.6 0-.1 0-.4.1-.9.1-.4.1-.7.1-.9 0-.3-.2-.4-.7-.4-.4 0-1 .1-1.6.2-.7.1-1.1.2-1.2.2-2.2.9-5.2 2.8-8.9 5.7-5.8 4.6-9.4 8.3-10.7 11.1-.6 2-.6 3.6 0 4.6.3.4 1.7.7 4.1.7 3.3-1 6.7-2.3 10.2-3.9 4.9-2.9 8.5-5.7 10.7-8.3.4-1.2 1.3-2.8 2.6-4.8 1.2-1.6 2.5-3 3.9-4.4 1.6-1.2 2.8-1 3.7.4 1 .7 1.1 1.7.2 2.8-1.3 2.6-3 4.8-5.2 6.5-1.9 3.8-2.1 6.7-.7 8.9 1.9 2.6 5.5 3.9 11.1 3.9z"/><path d="m610.9 666.7c2-.4 4.4-1 7-1.7-.3.1-2.5 1.4-6.5 3.7-4.8 1.7-9.1 1.5-13.1-.7-3.9-1.7-6.7-5.2-8.5-10.4-1-2.3-1.9-5.9-2.6-10.9l-5.2 7.8c-4.6 7.1-8.5 11.5-11.5 13.1-2.3.7-3.7.4-4.1-.9-5.4-12-9.5-20-12.4-23.9-.4 2.9-1.5 7.4-3.3 13.5-1.7 4.4-3 7.2-3.7 8.5-.9 1.7-1.8 3.2-2.7 4.4s-2 1.7-3.2 1.5c-2.2-.3-3.3-2.6-3.3-7 0-10 .1-19.7.4-28.9 0-1 .4-1.7 1.2-2.1s1.6-.3 2.4.1 1.2 1.2 1.2 2.2c0 2.3-.1 6.7-.3 13.3-.2 6.5-.3 11.5-.3 14.8.3-.6 1.5-3.4 3.7-8.5 1.7-5.2 2.7-9 2.8-11.3l1.1-4.4c.3-1.2.9-1.9 2-2.3 1-.4 2.1-.1 3.3.8.4.3 1.3 1.2 2.6 2.8 4.1 5.4 8 12.9 11.8 22.6 4.9-3.9 9.5-9.8 13.7-17.6l1.1-2.4c.7-1.4 1.7-3.2 2.8-5.2.6-1.2 1.5-1.6 2.7-1.2s1.9 1.2 1.9 2.5c-.3 3-.1 6.9.7 11.5 1.7 7 4.4 11.8 8.1 14.4 2.8 1.8 6.2 2.5 10.2 1.9z"/><path d="m629.6 666.7c2.2-.4 4.4-.7 6.7-.7-.9.6-3 1.5-6.5 2.8-4.9 1.4-8.4 1.9-10.4 1.3-1.7-.4-3.3-2.2-4.6-5.4-.6-2.6-.9-8.9-.9-18.9 0-1.6.8-2.5 2.4-2.7s2.4.5 2.4 2.1c-.3 8.9-.1 14.9.7 18.3.7 1.5 1.5 2.4 2.4 2.8.7.7 3.3.8 7.8.4zm-9.2-42.2c-.1-.4-.2-.9-.2-1.3s0-.8 0-1.1 0-.5 0-.7l.2-.4c.3-1.4 1.4-2 3.3-1.7 1.6.6 2.2 1.6 2 3l-.7 1.3c-.1.4 0 .9.3 1.5.4.6.3 1-.1 1.3-.7 1-1.6 1.2-2.6.7-.7-.6-1.4-1.5-2.2-2.6z"/><path d="m683.6 665.6c.9.1 3.4.1 7.5 0s6.4-.2 6.9-.2c-4.4 1.6-9 2.8-13.9 3.5-5.2 0-9.1-.4-11.5-1.3-6.4-2-9.4-7.5-9.1-16.3 0-3 .6-6.3 1.7-9.8-3.5 2.8-6.7 6-9.6 9.6-3.8 5.2-6.7 9.4-8.7 12.4l-3 4.1c-.6 1-1.4 1.3-2.5 1-1.1-.4-1.6-1.1-1.6-2.3v-12.4c0-4.2-.4-8.1-1.1-11.8-.1-1 .1-1.8.8-2.4s1.4-.8 2.3-.5c.9.2 1.4.8 1.5 1.6.4 2.9.9 7.3 1.3 13.1v5.2c2.6-3.8 5.4-7.3 8.3-10.7 2.5-3.2 5.5-6.2 9.1-9.1 2.8-2.2 4.7-3.5 5.9-3.9 1.4-.6 2.5-.5 3.3.3.7.8.7 1.9 0 3.2-.7 1.7-1.4 3.7-2 5.9-1.7 7-1.5 12.2.7 15.7 2 3.4 6.7 5.1 13.7 5.1z"/><path d="m740.4 665.6c3.2.3 10.1.1 20.7-.7-8.1 2.5-15 3.9-20.7 4.4-5.1.3-8.9-.3-11.3-1.7-2.2-1.9-3.8-4.1-5-6.7-2.6 1.6-5.2 2.8-7.8 3.5-8.3 3.3-15.1 5-20.5 5-2.6.1-4.7-.3-6.3-1.2s-2.3-2.5-2.2-4.7c0-4.8 3.9-10.4 11.8-16.8 5.2-3.5 9.4-5.7 12.6-6.7 3.2-1.2 6-1.1 8.5.2 1.3.7 1.7 1.8 1.1 3.2s-1.6 1.8-3 1.2c-1.2-1-2.8-1-4.8 0-3.2.6-7 2.5-11.5 5.9-7 5.5-10.4 9.9-10.4 13.1 0 1 1.4 1.5 4.4 1.5 5.5 0 11.9-1.4 19.2-4.1.9-.4 2.2-1.1 4.1-2s3.3-1.5 4.1-2c-1.2-4.6-1.4-9.4-.7-14.1 1-7.1 3.4-13.9 7.2-20.2 1.9-4.1 4.4-6.9 7.4-8.5 2.9-1.4 5.4-1.1 7.6 1.1 2.8 2.8 3.7 7.1 2.8 13.1-.6 6.7-3.4 13.3-8.5 19.8-2.6 3.6-6.2 6.9-10.7 9.8.9 3 2 5 3.3 5.9 1.4 1.1 4.4 1.7 8.6 1.7zm-13.1-22.4c-.3 4.4-.1 7.9.4 10.7 3-2.5 5.9-5.3 8.7-8.5 4.5-5.7 6.9-11.5 7.2-17.6.6-4.5-.1-7.6-2-9.4-.9-.7-1.7-.9-2.6-.4-1.6.9-3.4 3.2-5.4 7-3 5.3-5.1 11.4-6.3 18.2z"/><path d="m787.2 666c1.7-.1 4.4-.3 7.8-.5s6.1-.4 7.8-.5c-8 1.7-13.1 2.8-15.5 3-8.1 1.3-13.4 2-15.9 2.2-8.3.7-13.9 0-17-2.2-1.6-1.2-2.4-2.9-2.4-5.2 0-2 .7-5 2-8.9 1.7-4.1 4.1-7.6 7-10.7 4.1-4.6 8.5-7.2 13.3-7.6 3.9-.3 6.2 1.4 7 5 .9 3.9-.4 8.1-3.7 12.6-3.8 5.1-8.1 8.7-13.1 10.9-1.7.9-3.1 1.5-4.1 2 2.2.4 5.9.7 11.1.7zm-28.6-10.2c-1.3 3.6-1.8 6.4-1.5 8.3.6-.3 1.6-.8 2.9-1.4 1.4-.7 2.4-1.2 2.9-1.6 4.2-2 7.8-5.4 10.7-10 2.8-3.8 3.8-7 3-9.6 0-1-.7-1.3-2-.9-3.3.4-6.7 2.5-10.2 6.1-2.4 2.9-4.3 5.9-5.8 9.1z"/><path d="m844.8 665.6c3.2.3 10.1.1 20.7-.7-8.1 2.5-15 3.9-20.7 4.4-5.1.3-8.9-.3-11.3-1.7-2.2-1.9-3.8-4.1-5-6.7-2.6 1.6-5.2 2.8-7.8 3.5-8.3 3.3-15.1 5-20.5 5-2.6.1-4.7-.3-6.3-1.2s-2.3-2.5-2.2-4.7c0-4.8 3.9-10.4 11.8-16.8 5.2-3.5 9.4-5.7 12.6-6.7 3.2-1.2 6-1.1 8.5.2 1.3.7 1.7 1.8 1.1 3.2s-1.6 1.8-3 1.2c-1.2-1-2.8-1-4.8 0-3.2.6-7 2.5-11.5 5.9-7 5.5-10.4 9.9-10.4 13.1 0 1 1.4 1.5 4.4 1.5 5.5 0 11.9-1.4 19.2-4.1.9-.4 2.2-1.1 4.1-2s3.3-1.5 4.1-2c-1.2-4.6-1.4-9.4-.7-14.1 1-7.1 3.4-13.9 7.2-20.2 1.9-4.1 4.4-6.9 7.4-8.5 2.9-1.4 5.4-1.1 7.6 1.1 2.8 2.8 3.7 7.1 2.8 13.1-.6 6.7-3.4 13.3-8.5 19.8-2.6 3.6-6.2 6.9-10.7 9.8.9 3 2 5 3.3 5.9 1.5 1.1 4.4 1.7 8.6 1.7zm-13-22.4c-.3 4.4-.1 7.9.4 10.7 3-2.5 5.9-5.3 8.7-8.5 4.5-5.7 6.9-11.5 7.2-17.6.6-4.5-.1-7.6-2-9.4-.9-.7-1.7-.9-2.6-.4-1.6.9-3.4 3.2-5.4 7-3.1 5.3-5.2 11.4-6.3 18.2z"/></g><path d="m967.8 646.5c1.3 2.2 1.2 4.4-.2 6.7-1.2 2-2.8 3.8-4.8 5.3s-4.1 2.8-6.1 3.8c-3 1.6-6.2 3-9.6 4.1-3.3 1.2-6.7 2-10 2.4-2.5.3-5.1.5-7.9.8s-5.3 0-7.3-.8c-2.3-.7-3.8-1.9-4.6-3.5-.3-.4-.4-.9-.2-1.4.1-.5.4-.9.7-1.2s.7-.4 1.2-.3.9.4 1.2 1c.3.3.8.5 1.5.7.7.1 1.2.4 1.5.7 2 .4 4.3.5 6.7.3 2.5-.2 4.8-.5 7-.8 2.9-.4 5.9-1.2 9-2.2s6.1-2.3 8.8-3.9c1.6-.9 3.2-1.9 4.9-3.2 1.7-1.2 2.9-2.5 3.6-3.8.3-.7.5-1.2.5-1.4.1-.2 0-.5-.1-.8-.6-.9-1.3-1.6-2.1-2.3s-1.6-1.2-2.3-1.6c-2.3-1.2-4.4-2-6.2-2.4s-3.9-.5-6.2-.2c-1.5.1-2.8.4-4.1.8s-2.5 1.1-3.7 2.1c-1.2 1.2-1.9 2.9-2.2 5.2-.3.9-.5 2.1-.7 3.7-.1 1.6-.4 2.9-.7 3.9-.3.4-.6.9-.9 1.3s-.7.7-1.1.9c-1.2.3-2 .2-2.6-.3s-1-1.3-1.3-2.5c-.3-1-.4-2.3-.4-3.8s0-2.8 0-3.8c-.4-7.3-.6-14.5-.4-21.8.1-7.3.7-14.6 1.5-22 0-.7.3-1.2.9-1.5s1.2-.4 1.7-.3c.6.1 1.1.3 1.5.8s.6 1 .4 1.7c-.7 5.8-1.1 11.8-1.2 17.8-.1 6.1 0 12.8.1 20 .3-.4.6-.9 1-1.4s.8-.9 1.4-1.2c1.3-1.4 2.9-2.5 4.8-3.2s3.8-1.1 5.9-1.4c2.9-.1 5.5 0 7.7.4s4.7 1.4 7.3 2.8c1 .9 2.1 1.7 3.2 2.6 1.3 1 2.2 2 2.9 3.2z" fill="#ffbf00"/><path d="m1037.7 666c2.2.1 4.3.2 6.3.1s4.1-.5 6.1-1.2c-1.7 1.2-3.7 2-5.9 2.4s-4.4.7-6.5.7c-2.3 0-4.5-.1-6.6-.4s-4.3-.6-6.6-.9c-2.6-.6-5.3-1.2-8.2-1.9-2.8-.7-5.7-1.3-8.6-2.1-1.3 1.7-2.9 3.7-4.8 5.9s-3.8 3.9-5.7 5.2c-2.2 1.3-4.6 2-7.2 2-1.5 0-2.8-.3-4-.9s-2.4-1.3-3.4-2.2c-1.3-1.3-2.3-2.8-2.9-4.6s-1-3.4-1-5.1.4-3.2 1.1-4.7c.7-1.4 1.7-2.5 3-3.3 2.8-1.2 6.5-1.2 11.1-.2 1.3.1 2.8.4 4.6.8 1.7.4 4.1 1 7 1.9 2-3.5 4-7.4 5.8-11.8s3.2-8.7 4-13.1c.4-2.9.6-5.9.5-9.1s-.5-6.2-1.2-9.1c-1.2-3.5-2.6-6.1-4.5-7.9-1.8-1.8-3.5-2.9-5.1-3.2-2.2-.7-4.1-.4-5.9.9-1.6.9-3.1 2.1-4.5 3.6s-2.5 3.1-3.4 4.7c-.3.7-.6 1.6-.9 2.5s-.4 1.9-.4 2.7c-.1 1.6-1 2.3-2.5 2.2s-2.3-1-2.3-2.6c.3-2.3.9-4.6 2-6.7 1.2-2.2 2.5-4.2 4-6.1s3.3-3.3 5.3-4.4c3-1.9 6.3-2.5 9.8-1.7 3.3 1 6.1 2.9 8.2 5.7s3.7 5.8 4.7 9.1 1.6 6.7 1.6 10.1c.1 3.4-.3 6.8-1 10.1-.7 4.6-2 9.1-3.7 13.4s-3.8 8.3-6.1 12.1c2.6.7 5.2 1.5 7.8 2.3s5.1 1.6 7.4 2.3c2 .7 4.1 1.3 6.2 1.6 2.3.3 4.3.7 6.4.9zm-43.1 4c1.6-1 3.1-2.4 4.6-4 1.4-1.7 2.7-3.2 3.7-4.5-1.6-.3-3.2-.7-4.9-1.1s-3.3-.7-4.9-.9c-1-.3-2.3-.5-3.9-.7-1.6-.1-2.9.1-3.9.7-2.3 1.2-3.2 2.9-2.7 5.1.5 2.3 1.5 4 2.9 5.3 1.4 1 3 1.5 4.6 1.5 1.4.1 2.9-.4 4.5-1.4z" fill="#ffbf00"/><path d="m1086.2 646.5c1.3 2.2 1.2 4.4-.2 6.7-1.2 2-2.8 3.8-4.8 5.3s-4.1 2.8-6.1 3.8c-3 1.6-6.2 3-9.6 4.1-3.3 1.2-6.7 2-10 2.4-2.5.3-5.1.5-7.9.8s-5.3 0-7.3-.8c-2.3-.7-3.8-1.9-4.6-3.5-.3-.4-.4-.9-.2-1.4.1-.5.4-.9.7-1.2s.7-.4 1.2-.3.9.4 1.2 1c.3.3.8.5 1.5.7.7.1 1.2.4 1.5.7 2 .4 4.3.5 6.7.3 2.5-.2 4.8-.5 7-.8 2.9-.4 5.9-1.2 9-2.2s6.1-2.3 8.8-3.9c1.6-.9 3.2-1.9 4.9-3.2 1.7-1.2 2.9-2.5 3.6-3.8.3-.7.5-1.2.5-1.4.1-.2 0-.5-.1-.8-.6-.9-1.3-1.6-2.1-2.3s-1.6-1.2-2.3-1.6c-2.3-1.2-4.4-2-6.2-2.4s-3.9-.5-6.2-.2c-1.5.1-2.8.4-4.1.8s-2.5 1.1-3.7 2.1c-1.2 1.2-1.9 2.9-2.2 5.2-.3.9-.5 2.1-.7 3.7-.1 1.6-.4 2.9-.7 3.9-.3.4-.6.9-.9 1.3s-.7.7-1.1.9c-1.2.3-2 .2-2.6-.3s-1-1.3-1.3-2.5c-.3-1-.4-2.3-.4-3.8s0-2.8 0-3.8c-.4-7.3-.6-14.5-.4-21.8.1-7.3.7-14.6 1.5-22 0-.7.3-1.2.9-1.5s1.2-.4 1.7-.3c.6.1 1.1.3 1.5.8s.6 1 .4 1.7c-.7 5.8-1.1 11.8-1.2 17.8-.1 6.1 0 12.8.1 20 .3-.4.6-.9 1-1.4s.8-.9 1.4-1.2c1.3-1.4 2.9-2.5 4.8-3.2s3.8-1.1 5.9-1.4c2.9-.1 5.5 0 7.7.4s4.7 1.4 7.3 2.8c1 .9 2.1 1.7 3.2 2.6 1.3 1 2.2 2 2.9 3.2z" fill="#ffbf00"/></svg>